<svg xmlns="http://www.w3.org/2000/svg" width="12.48" height="7.733" viewBox="0 0 12.48 7.733">
  <path id="Icon_awesome-eye" data-name="Icon awesome-eye" d="M12.4,8.072A7.016,7.016,0,0,0,6.24,4.5,7.017,7.017,0,0,0,.075,8.073a.611.611,0,0,0,0,.588A7.016,7.016,0,0,0,6.24,12.233,7.017,7.017,0,0,0,12.4,8.66.611.611,0,0,0,12.4,8.072ZM6.24,11.266a3.016,3.016,0,0,1-3.12-2.9,3.016,3.016,0,0,1,3.12-2.9,3.016,3.016,0,0,1,3.12,2.9A3.014,3.014,0,0,1,6.24,11.266Zm0-4.833a2.21,2.21,0,0,0-.548.076.914.914,0,0,1-.1,1.252,1.1,1.1,0,0,1-1.348.095,1.864,1.864,0,0,0,.847,2.107,2.2,2.2,0,0,0,2.419-.071,1.85,1.85,0,0,0,.7-2.152A2.07,2.07,0,0,0,6.24,6.433Z" transform="translate(0 -4.5)" fill="#6f6e6f"/>
</svg>
