<svg xmlns="http://www.w3.org/2000/svg" width="10" height="8" viewBox="0 0 10 8">
  <path id="Icon_awesome-eye-slash" data-name="Icon awesome-eye-slash" d="M5,6.25A2.242,2.242,0,0,1,2.767,4.17L1.128,2.9a5.208,5.208,0,0,0-.574.869.505.505,0,0,0,0,.456A5.012,5.012,0,0,0,5,7a4.853,4.853,0,0,0,1.217-.163l-.811-.627A2.252,2.252,0,0,1,5,6.25Zm4.9.908L8.176,5.823a5.176,5.176,0,0,0,1.27-1.595.505.505,0,0,0,0-.456A5.012,5.012,0,0,0,5,1a4.815,4.815,0,0,0-2.3.589L.71.052A.25.25,0,0,0,.359.1L.053.491A.25.25,0,0,0,.1.842L9.29,7.947A.25.25,0,0,0,9.641,7.9l.307-.395A.25.25,0,0,0,9.9,7.158ZM7.033,4.939l-.614-.475A1.481,1.481,0,0,0,4.6,2.559.745.745,0,0,1,4.75,3a.729.729,0,0,1-.024.156l-1.15-.889A2.224,2.224,0,0,1,5,1.75,2.249,2.249,0,0,1,7.25,4a2.2,2.2,0,0,1-.217.939Z" transform="translate(0 0)" fill="#6f6e6f"/>
</svg>
