<svg xmlns="http://www.w3.org/2000/svg" width="31.98" height="32.866" viewBox="0 0 31.98 32.866">
  <g id="Group_27" data-name="Group 27" transform="translate(-1.002 -1.002)">
    <path id="Path_8" data-name="Path 8" d="M25,20a5,5,0,1,1-5-5A5,5,0,0,1,25,20Z" transform="translate(-3.008 -2.565)" fill="none" stroke="#ff5252" stroke-linecap="round" stroke-linejoin="round" stroke-width="1.33"/>
    <path id="Path_9" data-name="Path 9" d="M27.3,21.735a2.416,2.416,0,0,0,.46,2.609l.084.086a2.926,2.926,0,0,1,0,4.057,2.731,2.731,0,0,1-3.943,0l-.084-.086a2.251,2.251,0,0,0-2.536-.473,2.368,2.368,0,0,0-1.393,2.165v.244a2.787,2.787,0,1,1-5.573,0v-.129a2.361,2.361,0,0,0-1.5-2.165,2.251,2.251,0,0,0-2.536.473l-.084.086a2.731,2.731,0,0,1-3.943,0,2.926,2.926,0,0,1,0-4.057l.084-.086a2.416,2.416,0,0,0,.46-2.609,2.3,2.3,0,0,0-2.1-1.433H4.453a2.868,2.868,0,0,1,0-5.734h.125a2.3,2.3,0,0,0,2.1-1.548,2.416,2.416,0,0,0-.46-2.609l-.084-.086a2.926,2.926,0,0,1,0-4.057,2.731,2.731,0,0,1,3.943,0l.084.086a2.251,2.251,0,0,0,2.536.473h.111a2.368,2.368,0,0,0,1.393-2.165V4.534a2.787,2.787,0,1,1,5.573,0v.129a2.368,2.368,0,0,0,1.393,2.165,2.251,2.251,0,0,0,2.536-.473l.084-.086a2.731,2.731,0,0,1,3.943,0,2.926,2.926,0,0,1,0,4.057l-.084.086a2.416,2.416,0,0,0-.46,2.609v.115a2.3,2.3,0,0,0,2.1,1.433h.237a2.868,2.868,0,0,1,0,5.734H29.4A2.3,2.3,0,0,0,27.3,21.735Z" fill="none" stroke="#ff5252" stroke-linecap="round" stroke-linejoin="round" stroke-width="1.33"/>
  </g>
</svg>
