<svg xmlns="http://www.w3.org/2000/svg" width="24" height="25" viewBox="0 0 24 25">
  <path id="Icon_awesome-clock" data-name="Icon awesome-clock" d="M12.625.625a12.256,12.256,0,0,0-12,12.5,12.256,12.256,0,0,0,12,12.5,12.256,12.256,0,0,0,12-12.5A12.256,12.256,0,0,0,12.625.625Zm2.763,17.646L11.12,15.04a.617.617,0,0,1-.237-.489V6.069a.6.6,0,0,1,.581-.6h2.323a.6.6,0,0,1,.581.6v6.941l3.073,2.329a.621.621,0,0,1,.126.847L16.2,18.14A.57.57,0,0,1,15.388,18.271Z" transform="translate(-0.625 -0.625)" fill="#fe5959"/>
</svg>
